<?xml version="1.0" encoding="iso-8859-1"?>
<!-- Generator: Adobe Illustrator 19.0.0, SVG Export Plug-In . SVG Version: 6.00 Build 0)  -->
<svg version="1.1" id="Capa_1" xmlns="http://www.w3.org/2000/svg" xmlns:xlink="http://www.w3.org/1999/xlink" x="0px" y="0px"
	 viewBox="0 0 512 512" style="enable-background:new 0 0 512 512;" xml:space="preserve">
<g>
	<g>
		<polygon points="271,214.859 271,154.859 241,154.859 241,214.859 181,214.859 181,244.859 241,244.859 241,304.859 271,304.859 
			271,244.859 331,244.859 331,214.859 		"/>
	</g>
</g>
<g>
	<g>
		<path d="M466.236,63.539C408.785,6.185,317.298,2.938,256,53.818C194.7,2.938,103.212,6.185,45.763,63.539
			C16.252,93.003,0,132.178,0,173.849s16.252,80.846,45.763,110.31L256,494.055l210.237-209.896
			C495.748,254.695,512,215.52,512,173.849S495.748,93.003,466.236,63.539z M361,274.859h-60v60h-90v-60h-60v-90h60v-60h90v60h60
			V274.859z"/>
	</g>
</g>
<g>
</g>
<g>
</g>
<g>
</g>
<g>
</g>
<g>
</g>
<g>
</g>
<g>
</g>
<g>
</g>
<g>
</g>
<g>
</g>
<g>
</g>
<g>
</g>
<g>
</g>
<g>
</g>
<g>
</g>
</svg>
